<svg width="311" height="31" viewBox="0 0 311 31" fill="none" xmlns="http://www.w3.org/2000/svg">
<path d="M21.202 10.2061H9.79801C4.38688 10.2061 0 14.6357 0 20.102C0 25.5683 4.38688 29.9999 9.79801 29.9999H21.202C26.6131 29.9999 31 25.5683 31 20.102C31 14.6357 26.6131 10.2061 21.202 10.2061ZM20.9884 28.865C16.199 28.865 12.3157 24.9421 12.3157 20.1039C12.3157 15.2658 16.199 11.3429 20.9884 11.3429C25.7777 11.3429 29.661 15.2658 29.661 20.1039C29.661 24.9421 25.7777 28.865 20.9884 28.865Z" fill="#34C759"/>
<path d="M19.8459 5.85553C19.8459 7.10215 20.1663 8.27171 20.729 9.2852C17.9939 8.80928 15.913 6.40081 15.913 3.501C15.913 3.13684 15.9454 2.78038 16.0102 2.43356C16.5443 2.26978 17.1127 2.18115 17.7001 2.18115C18.711 2.18115 19.6628 2.44319 20.4906 2.90177C20.0767 3.79965 19.8459 4.79965 19.8459 5.85553Z" fill="#34C759"/>
<path d="M27.5363 3.50096C27.5363 6.15029 25.8006 8.38921 23.4145 9.11946C23.0044 9.2447 22.5772 9.32755 22.1328 9.35645H22.1309C21.4118 8.37958 20.9865 7.16763 20.9865 5.85549C20.9865 5.04239 21.1505 4.26782 21.4461 3.56262C22.2796 1.57803 24.1622 0.154143 26.3919 0C27.1109 0.976879 27.5363 2.18882 27.5363 3.50096Z" fill="#34C759"/>
<path d="M51.544 15.84H45.976V30H42.88V15.84H37.336V13.2H51.544V15.84ZM66.8348 27.384V30H54.2348V13.2H66.4988V15.816H57.3548V20.184H65.4668V22.752H57.3548V27.384H66.8348ZM77.2249 13.2C78.6809 13.2 79.9449 13.44 81.0169 13.92C82.1049 14.4 82.9369 15.088 83.5129 15.984C84.0889 16.88 84.3769 17.944 84.3769 19.176C84.3769 20.392 84.0889 21.456 83.5129 22.368C82.9369 23.264 82.1049 23.952 81.0169 24.432C79.9449 24.912 78.6809 25.152 77.2249 25.152H73.4329V30H70.3129V13.2H77.2249ZM77.0809 22.512C78.4409 22.512 79.4729 22.224 80.1769 21.648C80.8809 21.072 81.2329 20.248 81.2329 19.176C81.2329 18.104 80.8809 17.28 80.1769 16.704C79.4729 16.128 78.4409 15.84 77.0809 15.84H73.4329V22.512H77.0809ZM94.2406 13.2C95.6966 13.2 96.9606 13.44 98.0326 13.92C99.1206 14.4 99.9526 15.088 100.529 15.984C101.105 16.88 101.393 17.944 101.393 19.176C101.393 20.392 101.105 21.456 100.529 22.368C99.9526 23.264 99.1206 23.952 98.0326 24.432C96.9606 24.912 95.6966 25.152 94.2406 25.152H90.4486V30H87.3286V13.2H94.2406ZM94.0966 22.512C95.4566 22.512 96.4886 22.224 97.1926 21.648C97.8966 21.072 98.2486 20.248 98.2486 19.176C98.2486 18.104 97.8966 17.28 97.1926 16.704C96.4886 16.128 95.4566 15.84 94.0966 15.84H90.4486V22.512H94.0966ZM104.368 13.2H107.44V25.128L116.464 13.2H119.368V30H116.296V18.096L107.272 30H104.368V13.2ZM136.271 15.84H130.703V30H127.607V15.84H122.063V13.2H136.271V15.84ZM146.503 30.24C144.791 30.24 143.247 29.872 141.871 29.136C140.495 28.384 139.415 27.352 138.631 26.04C137.847 24.712 137.455 23.232 137.455 21.6C137.455 19.968 137.847 18.496 138.631 17.184C139.415 15.856 140.495 14.824 141.871 14.088C143.247 13.336 144.791 12.96 146.503 12.96C148.215 12.96 149.759 13.336 151.135 14.088C152.511 14.824 153.591 15.848 154.375 17.16C155.159 18.472 155.551 19.952 155.551 21.6C155.551 23.248 155.159 24.728 154.375 26.04C153.591 27.352 152.511 28.384 151.135 29.136C149.759 29.872 148.215 30.24 146.503 30.24ZM146.503 27.504C147.623 27.504 148.631 27.256 149.527 26.76C150.423 26.248 151.127 25.544 151.639 24.648C152.151 23.736 152.407 22.72 152.407 21.6C152.407 20.48 152.151 19.472 151.639 18.576C151.127 17.664 150.423 16.96 149.527 16.464C148.631 15.952 147.623 15.696 146.503 15.696C145.383 15.696 144.375 15.952 143.479 16.464C142.583 16.96 141.879 17.664 141.367 18.576C140.855 19.472 140.599 20.48 140.599 21.6C140.599 22.72 140.855 23.736 141.367 24.648C141.879 25.544 142.583 26.248 143.479 26.76C144.375 27.256 145.383 27.504 146.503 27.504ZM165.912 13.2C167.368 13.2 168.632 13.44 169.704 13.92C170.792 14.4 171.624 15.088 172.2 15.984C172.776 16.88 173.064 17.944 173.064 19.176C173.064 20.392 172.776 21.456 172.2 22.368C171.624 23.264 170.792 23.952 169.704 24.432C168.632 24.912 167.368 25.152 165.912 25.152H162.12V30H159V13.2H165.912ZM165.768 22.512C167.128 22.512 168.16 22.224 168.864 21.648C169.568 21.072 169.92 20.248 169.92 19.176C169.92 18.104 169.568 17.28 168.864 16.704C168.16 16.128 167.128 15.84 165.768 15.84H162.12V22.512H165.768ZM176.04 13.2H179.112V25.128L188.136 13.2H191.04V30H187.968V18.096L178.944 30H176.04V13.2ZM208.59 13.2V30H205.518V25.32H201.366H201.03L197.91 30H194.622L198.222 24.816C197.054 24.384 196.15 23.704 195.51 22.776C194.886 21.832 194.574 20.696 194.574 19.368C194.574 18.088 194.862 16.984 195.438 16.056C196.014 15.128 196.83 14.424 197.886 13.944C198.942 13.448 200.182 13.2 201.606 13.2H208.59ZM201.702 15.84C200.422 15.84 199.438 16.136 198.75 16.728C198.078 17.32 197.742 18.184 197.742 19.32C197.742 20.424 198.07 21.28 198.726 21.888C199.382 22.48 200.334 22.776 201.582 22.776H205.518V15.84H201.702ZM231.025 21.264C232.097 21.552 232.913 22.048 233.473 22.752C234.033 23.44 234.313 24.304 234.313 25.344C234.313 26.816 233.769 27.96 232.681 28.776C231.593 29.592 230.017 30 227.953 30H219.985V13.2H227.497C229.385 13.2 230.857 13.576 231.913 14.328C232.969 15.08 233.497 16.144 233.497 17.52C233.497 18.4 233.281 19.16 232.849 19.8C232.433 20.44 231.825 20.928 231.025 21.264ZM223.057 20.376H227.233C228.241 20.376 229.009 20.176 229.537 19.776C230.065 19.376 230.329 18.784 230.329 18C230.329 17.216 230.065 16.624 229.537 16.224C229.009 15.808 228.241 15.6 227.233 15.6H223.057V20.376ZM227.857 27.6C230.065 27.6 231.169 26.768 231.169 25.104C231.169 23.472 230.065 22.656 227.857 22.656H223.057V27.6H227.857ZM244.06 22.92H240.94V30H237.868V13.2H240.94V20.232H244.156L248.98 13.2H252.292L246.556 21.336L252.508 30H248.98L244.06 22.92ZM269.26 13.2L261.964 26.76C261.324 27.96 260.556 28.864 259.66 29.472C258.78 30.064 257.82 30.36 256.78 30.36C255.948 30.36 255.124 30.184 254.308 29.832L255.076 27.384C255.732 27.592 256.276 27.696 256.708 27.696C257.716 27.696 258.548 27.176 259.204 26.136L259.468 25.728L252.772 13.2H256.108L261.076 23.064L266.188 13.2H269.26ZM278.971 30.24C277.275 30.24 275.739 29.872 274.363 29.136C273.003 28.384 271.931 27.352 271.147 26.04C270.379 24.728 269.995 23.248 269.995 21.6C269.995 19.952 270.387 18.472 271.171 17.16C271.955 15.848 273.027 14.824 274.387 14.088C275.763 13.336 277.299 12.96 278.995 12.96C280.371 12.96 281.627 13.2 282.763 13.68C283.899 14.16 284.859 14.856 285.643 15.768L283.627 17.664C282.411 16.352 280.915 15.696 279.139 15.696C277.987 15.696 276.955 15.952 276.043 16.464C275.131 16.96 274.419 17.656 273.907 18.552C273.395 19.448 273.139 20.464 273.139 21.6C273.139 22.736 273.395 23.752 273.907 24.648C274.419 25.544 275.131 26.248 276.043 26.76C276.955 27.256 277.987 27.504 279.139 27.504C280.915 27.504 282.411 26.84 283.627 25.512L285.643 27.432C284.859 28.344 283.891 29.04 282.739 29.52C281.603 30 280.347 30.24 278.971 30.24ZM299.324 26.112H290.924L289.268 30H286.052L293.612 13.2H296.684L304.268 30H301.004L299.324 26.112ZM298.292 23.664L295.124 16.32L291.98 23.664H298.292Z" fill="#34C759"/>
</svg>
