<svg width="38" height="38" viewBox="0 0 38 38" fill="none" xmlns="http://www.w3.org/2000/svg">
<path d="M29.1054 10.88C29.0332 10.7909 28.9422 10.7188 28.8389 10.6691C28.7357 10.6194 28.6227 10.5932 28.5081 10.5925H12.3591L12.8633 12.1469H27.492L25.421 21.4735H13.7863L10.2416 10.2272C10.2032 10.1078 10.1366 9.99956 10.0475 9.91159C9.95835 9.82362 9.84929 9.75857 9.72963 9.72198L6.54946 8.74269C6.45168 8.71258 6.34893 8.70206 6.24709 8.71174C6.14525 8.72142 6.04631 8.7511 5.95591 8.7991C5.77336 8.89602 5.63671 9.06165 5.57602 9.25953C5.51534 9.45742 5.53559 9.67135 5.63232 9.85428C5.72905 10.0372 5.89434 10.1741 6.09183 10.2349L8.87641 11.0899L12.4366 22.3595L11.1646 23.401L11.0637 23.502C10.7491 23.8653 10.5707 24.3273 10.5594 24.8082C10.5481 25.2891 10.7045 25.7589 11.0017 26.1368C11.2131 26.3944 11.4817 26.5988 11.7861 26.7338C12.0905 26.8688 12.4222 26.9305 12.7547 26.914H25.7003C25.906 26.914 26.1033 26.8321 26.2487 26.6863C26.3942 26.5406 26.4759 26.3429 26.4759 26.1368C26.4759 25.9306 26.3942 25.7329 26.2487 25.5872C26.1033 25.4414 25.906 25.3595 25.7003 25.3595H12.6306C12.5412 25.3565 12.4542 25.3304 12.3779 25.2838C12.3016 25.2372 12.2385 25.1717 12.1949 25.0935C12.1512 25.0154 12.1284 24.9273 12.1286 24.8378C12.1288 24.7482 12.1521 24.6602 12.1962 24.5823L14.0655 23.0279H26.0415C26.2208 23.0323 26.3961 22.9743 26.5375 22.8637C26.679 22.7532 26.7778 22.597 26.8172 22.4217L29.276 11.5407C29.2996 11.4248 29.2965 11.3051 29.2669 11.1906C29.2373 11.0761 29.1821 10.9699 29.1054 10.88V10.88Z" fill="white"/>
<ellipse cx="27.7083" cy="10.2917" rx="4.75" ry="4.75" fill="#7D2C1B"/>
<path d="M27.7833 9.56675C28.1053 9.56675 28.3923 9.62741 28.6443 9.74875C28.901 9.87008 29.1017 10.0451 29.2463 10.2737C29.391 10.4977 29.4633 10.7567 29.4633 11.0507C29.4633 11.3587 29.3863 11.6294 29.2323 11.8627C29.083 12.0961 28.8753 12.2781 28.6093 12.4087C28.348 12.5347 28.054 12.5977 27.7273 12.5977C27.0693 12.5977 26.5607 12.3854 26.2013 11.9607C25.8467 11.5361 25.6693 10.9341 25.6693 10.1547C25.6693 9.60875 25.765 9.14441 25.9563 8.76175C26.1523 8.37441 26.423 8.08275 26.7683 7.88675C27.1183 7.68608 27.5243 7.58575 27.9863 7.58575C28.2243 7.58575 28.4483 7.61141 28.6583 7.66275C28.8683 7.70941 29.0503 7.77941 29.2043 7.87275L28.9383 8.41875C28.705 8.26475 28.3923 8.18775 28.0003 8.18775C27.4917 8.18775 27.0927 8.34641 26.8033 8.66375C26.514 8.97641 26.3693 9.43375 26.3693 10.0357C26.3693 10.1104 26.3717 10.1687 26.3763 10.2107C26.5163 10.0007 26.7077 9.84208 26.9503 9.73475C27.1977 9.62275 27.4753 9.56675 27.7833 9.56675ZM27.6993 12.0307C28.0213 12.0307 28.2827 11.9444 28.4833 11.7717C28.684 11.5991 28.7843 11.3681 28.7843 11.0787C28.7843 10.7894 28.6817 10.5607 28.4763 10.3927C28.2757 10.2201 28.005 10.1337 27.6643 10.1337C27.445 10.1337 27.249 10.1757 27.0763 10.2597C26.9083 10.3437 26.7753 10.4581 26.6773 10.6027C26.584 10.7474 26.5373 10.9084 26.5373 11.0857C26.5373 11.2584 26.5817 11.4171 26.6703 11.5617C26.7637 11.7017 26.8967 11.8161 27.0693 11.9047C27.2467 11.9887 27.4567 12.0307 27.6993 12.0307Z" fill="white"/>
</svg>
