<svg width="32" height="32" viewBox="0 0 32 32" fill="none" xmlns="http://www.w3.org/2000/svg">
<path d="M24.6009 21.8428C24.1327 20.7531 23.4532 19.7632 22.6002 18.9284C21.7499 18.0912 20.7426 17.4236 19.6339 16.9627C19.624 16.9578 19.6141 16.9554 19.6042 16.9505C21.1506 15.853 22.1559 14.0653 22.1559 12.0484C22.1559 8.70714 19.4006 6 15.9999 6C12.5992 6 9.84394 8.70714 9.84394 12.0484C9.84394 14.0653 10.8493 15.853 12.3957 16.9529C12.3858 16.9578 12.3758 16.9602 12.3659 16.9651C11.2539 17.4261 10.256 18.087 9.39962 18.9308C8.54748 19.7663 7.86808 20.756 7.39892 21.8453C6.93802 22.9117 6.68945 24.055 6.66666 25.2133C6.666 25.2394 6.67064 25.2653 6.68032 25.2895C6.69001 25.3137 6.70453 25.3358 6.72304 25.3545C6.74154 25.3731 6.76366 25.3879 6.78808 25.398C6.8125 25.4081 6.83874 25.4133 6.86524 25.4133H8.35459C8.46381 25.4133 8.55069 25.328 8.55317 25.2231C8.60282 23.3403 9.37231 21.577 10.7326 20.2405C12.14 18.8577 14.0092 18.0967 15.9999 18.0967C17.9907 18.0967 19.8598 18.8577 21.2673 20.2405C22.6275 21.577 23.397 23.3403 23.4467 25.2231C23.4492 25.3304 23.536 25.4133 23.6453 25.4133H25.1346C25.1611 25.4133 25.1874 25.4081 25.2118 25.398C25.2362 25.3879 25.2583 25.3731 25.2768 25.3545C25.2953 25.3358 25.3099 25.3137 25.3195 25.2895C25.3292 25.2653 25.3339 25.2394 25.3332 25.2133C25.3084 24.0476 25.0626 22.9135 24.6009 21.8428ZM15.9999 16.2432C14.8606 16.2432 13.7882 15.8067 12.9815 15.014C12.1748 14.2214 11.7305 13.1678 11.7305 12.0484C11.7305 10.9289 12.1748 9.87535 12.9815 9.08272C13.7882 8.29009 14.8606 7.85353 15.9999 7.85353C17.1393 7.85353 18.2116 8.29009 19.0183 9.08272C19.8251 9.87535 20.2694 10.9289 20.2694 12.0484C20.2694 13.1678 19.8251 14.2214 19.0183 15.014C18.2116 15.8067 17.1393 16.2432 15.9999 16.2432Z" fill="white"/>
</svg>
