<svg width="145" height="19" viewBox="0 0 145 19" fill="none" xmlns="http://www.w3.org/2000/svg">
<path d="M35.07 9.52H32.466V12.068H31.584V9.52H28.98V8.694H31.584V6.132H32.466V8.694H35.07V9.52ZM43.56 4.2V4.914L39.458 14H38.366L42.398 5.096H37.358V6.93H36.364V4.2H43.56ZM50.9042 16.716C50.3816 15.8573 49.9802 14.8727 49.7002 13.762C49.4202 12.642 49.2802 11.4427 49.2802 10.164C49.2802 8.88533 49.4202 7.686 49.7002 6.566C49.9802 5.43667 50.3816 4.452 50.9042 3.612H51.8562C51.3056 4.55467 50.8996 5.56733 50.6382 6.65C50.3862 7.73267 50.2602 8.904 50.2602 10.164C50.2602 11.424 50.3862 12.5953 50.6382 13.678C50.8996 14.7607 51.3056 15.7733 51.8562 16.716H50.9042ZM56.2116 4.116C57.509 4.116 58.503 4.54533 59.1936 5.404C59.8843 6.25333 60.2296 7.45733 60.2296 9.016C60.2296 10.108 60.043 11.032 59.6696 11.788C59.2963 12.544 58.7736 13.118 58.1016 13.51C57.4296 13.8927 56.6456 14.084 55.7496 14.084C54.779 14.084 54.0043 13.9067 53.4256 13.552L53.8316 12.74C54.2983 13.048 54.933 13.202 55.7356 13.202C56.8183 13.202 57.6676 12.8613 58.2836 12.18C58.8996 11.4893 59.2076 10.4907 59.2076 9.184C59.2076 8.94133 59.1936 8.67533 59.1656 8.386C58.923 8.918 58.5356 9.33333 58.0036 9.632C57.4716 9.92133 56.8603 10.066 56.1696 10.066C55.5256 10.066 54.9516 9.94467 54.4476 9.702C53.953 9.45933 53.5656 9.11867 53.2856 8.68C53.0056 8.232 52.8656 7.714 52.8656 7.126C52.8656 6.52867 53.0103 6.00133 53.2996 5.544C53.589 5.08667 53.9856 4.73667 54.4896 4.494C55.003 4.242 55.577 4.116 56.2116 4.116ZM56.3236 9.212C56.8183 9.212 57.2523 9.11867 57.6256 8.932C58.0083 8.74533 58.307 8.48867 58.5216 8.162C58.7363 7.83533 58.8436 7.47133 58.8436 7.07C58.8436 6.69667 58.741 6.35133 58.5356 6.034C58.3396 5.71667 58.0456 5.46 57.6536 5.264C57.2616 5.068 56.795 4.97 56.2536 4.97C55.5443 4.97 54.9656 5.166 54.5176 5.558C54.079 5.94067 53.8596 6.454 53.8596 7.098C53.8596 7.742 54.079 8.25533 54.5176 8.638C54.9656 9.02067 55.5676 9.212 56.3236 9.212ZM64.8862 8.4C65.9128 8.456 66.6922 8.736 67.2242 9.24C67.7655 9.73467 68.0362 10.3833 68.0362 11.186C68.0362 11.746 67.9008 12.2453 67.6302 12.684C67.3595 13.1133 66.9582 13.454 66.4262 13.706C65.8942 13.958 65.2455 14.084 64.4802 14.084C63.7708 14.084 63.0988 13.972 62.4642 13.748C61.8388 13.5147 61.3348 13.2067 60.9522 12.824L61.4422 12.026C61.7688 12.362 62.2028 12.6373 62.7442 12.852C63.2855 13.0573 63.8642 13.16 64.4802 13.16C65.2828 13.16 65.9035 12.9873 66.3422 12.642C66.7808 12.2873 67.0002 11.802 67.0002 11.186C67.0002 10.5793 66.7808 10.1033 66.3422 9.758C65.9035 9.41267 65.2408 9.24 64.3542 9.24H63.6542V8.498L66.3702 5.096H61.3582V4.2H67.6582V4.914L64.8862 8.4ZM75.0705 8.862C75.6865 9.06733 76.1578 9.37533 76.4845 9.786C76.8205 10.1967 76.9885 10.6913 76.9885 11.27C76.9885 11.8393 76.8345 12.3387 76.5265 12.768C76.2185 13.188 75.7752 13.5147 75.1965 13.748C74.6272 13.972 73.9552 14.084 73.1805 14.084C72.0045 14.084 71.0805 13.832 70.4085 13.328C69.7365 12.824 69.4005 12.138 69.4005 11.27C69.4005 10.682 69.5592 10.1873 69.8765 9.786C70.2032 9.37533 70.6745 9.06733 71.2905 8.862C70.7865 8.666 70.4038 8.386 70.1425 8.022C69.8812 7.64867 69.7505 7.21 69.7505 6.706C69.7505 5.91267 70.0585 5.28267 70.6745 4.816C71.2998 4.34933 72.1352 4.116 73.1805 4.116C73.8712 4.116 74.4732 4.22333 74.9865 4.438C75.5092 4.64333 75.9152 4.942 76.2045 5.334C76.4938 5.726 76.6385 6.18333 76.6385 6.706C76.6385 7.21 76.5032 7.64867 76.2325 8.022C75.9618 8.386 75.5745 8.666 75.0705 8.862ZM70.7585 6.734C70.7585 7.27533 70.9732 7.70467 71.4025 8.022C71.8318 8.33933 72.4245 8.498 73.1805 8.498C73.9365 8.498 74.5292 8.33933 74.9585 8.022C75.3972 7.70467 75.6165 7.28 75.6165 6.748C75.6165 6.19733 75.3925 5.76333 74.9445 5.446C74.5058 5.12867 73.9178 4.97 73.1805 4.97C72.4338 4.97 71.8412 5.12867 71.4025 5.446C70.9732 5.76333 70.7585 6.19267 70.7585 6.734ZM73.1805 13.23C74.0485 13.23 74.7252 13.0527 75.2105 12.698C75.7052 12.3433 75.9525 11.8627 75.9525 11.256C75.9525 10.6493 75.7052 10.1733 75.2105 9.828C74.7252 9.47333 74.0485 9.296 73.1805 9.296C72.3218 9.296 71.6452 9.47333 71.1505 9.828C70.6652 10.1733 70.4225 10.6493 70.4225 11.256C70.4225 11.872 70.6652 12.3573 71.1505 12.712C71.6358 13.0573 72.3125 13.23 73.1805 13.23ZM78.2163 16.716C78.7669 15.7733 79.1729 14.7653 79.4343 13.692C79.6956 12.6093 79.8263 11.4333 79.8263 10.164C79.8263 8.89467 79.6956 7.72333 79.4343 6.65C79.1729 5.56733 78.7669 4.55467 78.2163 3.612H79.1683C79.6909 4.452 80.0923 5.43667 80.3723 6.566C80.6616 7.686 80.8063 8.88533 80.8063 10.164C80.8063 11.4427 80.6663 12.642 80.3863 13.762C80.1063 14.882 79.7003 15.8667 79.1683 16.716H78.2163ZM88.6057 8.862C89.2217 9.06733 89.693 9.37533 90.0197 9.786C90.3557 10.1967 90.5237 10.6913 90.5237 11.27C90.5237 11.8393 90.3697 12.3387 90.0617 12.768C89.7537 13.188 89.3103 13.5147 88.7317 13.748C88.1623 13.972 87.4903 14.084 86.7157 14.084C85.5397 14.084 84.6157 13.832 83.9437 13.328C83.2717 12.824 82.9357 12.138 82.9357 11.27C82.9357 10.682 83.0943 10.1873 83.4117 9.786C83.7383 9.37533 84.2097 9.06733 84.8257 8.862C84.3217 8.666 83.939 8.386 83.6777 8.022C83.4163 7.64867 83.2857 7.21 83.2857 6.706C83.2857 5.91267 83.5937 5.28267 84.2097 4.816C84.835 4.34933 85.6703 4.116 86.7157 4.116C87.4063 4.116 88.0083 4.22333 88.5217 4.438C89.0443 4.64333 89.4503 4.942 89.7397 5.334C90.029 5.726 90.1737 6.18333 90.1737 6.706C90.1737 7.21 90.0383 7.64867 89.7677 8.022C89.497 8.386 89.1097 8.666 88.6057 8.862ZM84.2937 6.734C84.2937 7.27533 84.5083 7.70467 84.9377 8.022C85.367 8.33933 85.9597 8.498 86.7157 8.498C87.4717 8.498 88.0643 8.33933 88.4937 8.022C88.9323 7.70467 89.1517 7.28 89.1517 6.748C89.1517 6.19733 88.9277 5.76333 88.4797 5.446C88.041 5.12867 87.453 4.97 86.7157 4.97C85.969 4.97 85.3763 5.12867 84.9377 5.446C84.5083 5.76333 84.2937 6.19267 84.2937 6.734ZM86.7157 13.23C87.5837 13.23 88.2603 13.0527 88.7457 12.698C89.2403 12.3433 89.4877 11.8627 89.4877 11.256C89.4877 10.6493 89.2403 10.1733 88.7457 9.828C88.2603 9.47333 87.5837 9.296 86.7157 9.296C85.857 9.296 85.1803 9.47333 84.6857 9.828C84.2003 10.1733 83.9577 10.6493 83.9577 11.256C83.9577 11.872 84.2003 12.3573 84.6857 12.712C85.171 13.0573 85.8477 13.23 86.7157 13.23ZM95.2514 8.4C96.2781 8.456 97.0574 8.736 97.5894 9.24C98.1307 9.73467 98.4014 10.3833 98.4014 11.186C98.4014 11.746 98.2661 12.2453 97.9954 12.684C97.7247 13.1133 97.3234 13.454 96.7914 13.706C96.2594 13.958 95.6107 14.084 94.8454 14.084C94.1361 14.084 93.4641 13.972 92.8294 13.748C92.2041 13.5147 91.7001 13.2067 91.3174 12.824L91.8074 12.026C92.1341 12.362 92.5681 12.6373 93.1094 12.852C93.6507 13.0573 94.2294 13.16 94.8454 13.16C95.6481 13.16 96.2687 12.9873 96.7074 12.642C97.1461 12.2873 97.3654 11.802 97.3654 11.186C97.3654 10.5793 97.1461 10.1033 96.7074 9.758C96.2687 9.41267 95.6061 9.24 94.7194 9.24H94.0194V8.498L96.7354 5.096H91.7234V4.2H98.0234V4.914L95.2514 8.4ZM103.085 8.4C104.112 8.456 104.891 8.736 105.423 9.24C105.965 9.73467 106.235 10.3833 106.235 11.186C106.235 11.746 106.1 12.2453 105.829 12.684C105.559 13.1133 105.157 13.454 104.625 13.706C104.093 13.958 103.445 14.084 102.679 14.084C101.97 14.084 101.298 13.972 100.663 13.748C100.038 13.5147 99.5341 13.2067 99.1514 12.824L99.6414 12.026C99.9681 12.362 100.402 12.6373 100.943 12.852C101.485 13.0573 102.063 13.16 102.679 13.16C103.482 13.16 104.103 12.9873 104.541 12.642C104.98 12.2873 105.199 11.802 105.199 11.186C105.199 10.5793 104.98 10.1033 104.541 9.758C104.103 9.41267 103.44 9.24 102.553 9.24H101.853V8.498L104.569 5.096H99.5574V4.2H105.857V4.914L103.085 8.4ZM118.012 13.104V14H111.138V13.286L115.212 9.296C115.725 8.792 116.07 8.358 116.248 7.994C116.434 7.62067 116.528 7.24733 116.528 6.874C116.528 6.29533 116.327 5.84733 115.926 5.53C115.534 5.20333 114.969 5.04 114.232 5.04C113.084 5.04 112.192 5.404 111.558 6.132L110.844 5.516C111.226 5.068 111.712 4.72267 112.3 4.48C112.897 4.23733 113.569 4.116 114.316 4.116C115.314 4.116 116.103 4.354 116.682 4.83C117.27 5.29667 117.564 5.94067 117.564 6.762C117.564 7.266 117.452 7.75133 117.228 8.218C117.004 8.68467 116.579 9.22133 115.954 9.828L112.622 13.104H118.012ZM127.279 11.424H125.319V14H124.311V11.424H118.781V10.696L123.975 4.2H125.095L120.083 10.528H124.339V8.26H125.319V10.528H127.279V11.424ZM134.585 4.2V14H133.577V5.096H131.267V4.2H134.585ZM139.503 8.218C140.922 8.218 141.953 8.47467 142.597 8.988C143.251 9.492 143.577 10.2013 143.577 11.116C143.577 11.6853 143.442 12.194 143.171 12.642C142.91 13.09 142.513 13.4447 141.981 13.706C141.449 13.958 140.796 14.084 140.021 14.084C139.321 14.084 138.654 13.972 138.019 13.748C137.394 13.5147 136.89 13.2067 136.507 12.824L136.997 12.026C137.324 12.362 137.753 12.6373 138.285 12.852C138.817 13.0573 139.391 13.16 140.007 13.16C140.819 13.16 141.445 12.978 141.883 12.614C142.331 12.25 142.555 11.7647 142.555 11.158C142.555 10.486 142.303 9.97733 141.799 9.632C141.305 9.28667 140.465 9.114 139.279 9.114H137.193L137.697 4.2H143.059V5.096H138.579L138.243 8.218H139.503Z" fill="white"/>
<mask id="mask0_96_16" style="mask-type:alpha" maskUnits="userSpaceOnUse" x="0" y="1" width="18" height="18">
<path fill-rule="evenodd" clip-rule="evenodd" d="M3.62 8.79C5.06 11.62 7.38 13.93 10.21 15.38L12.41 13.18C12.68 12.91 13.08 12.82 13.43 12.94C14.55 13.31 15.76 13.51 17 13.51C17.55 13.51 18 13.96 18 14.51V18C18 18.55 17.55 19 17 19C7.61 19 0 11.39 0 2C0 1.45 0.45 1 1 1H4.5C5.05 1 5.5 1.45 5.5 2C5.5 3.25 5.7 4.45 6.07 5.57C6.18 5.92 6.1 6.31 5.82 6.59L3.62 8.79Z" fill="white"/>
</mask>
<g mask="url(#mask0_96_16)">
<rect x="-4" y="-3" width="26" height="26" fill="white" fill-opacity="0.5"/>
</g>
</svg>
